# xmcd CD database file
#
# Track frame offsets:
#	150
#	12759
#	27330
#	43902
#	58097
#	75379
#	94409
#	108519
#	121818
#	138678
#	151158
#	166254
#	187965
#	202266
#	218198
#	240230
#
# Disc length: 3507 seconds
#
# Revision: 1
# Processed by: cddbd v1.5.2PL0 Copyright (c) Steve Scherf et al.
# Submitted via: CDex 1.70beta2
#
DISCID=d60db110
DTITLE=Ana Paula Lopes - Mil Rosas
DYEAR=2008
DGENRE=Jazz
TTITLE0=Gata Lúcida
TTITLE1=Mil Rosas
TTITLE2=Mesmo Que Tarde
TTITLE3=Sorrir À Toa
TTITLE4=Quem Sabe
TTITLE5=Sabores
TTITLE6=Sinhô Do Tempo
TTITLE7=Outra Vez
TTITLE8=Teu Mar
TTITLE9=A Chegança
TTITLE10=Pedrarias, Prata E Pó
TTITLE11=Vai E Vem
TTITLE12=Carta Ao Meu Amor
TTITLE13=Rainha Da Laje
TTITLE14=Águas De Março
TTITLE15=A História De Lily Braun
EXTD=YEAR: 2008
EXTT0=
EXTT1=
EXTT2=
EXTT3=
EXTT4=
EXTT5=
EXTT6=
EXTT7=
EXTT8=
EXTT9=
EXTT10=
EXTT11=
EXTT12=
EXTT13=
EXTT14=
EXTT15=
PLAYORDER=
